name pl02_filtered_grf.mot
datacolumns 37
datarows 11
range 0.498500 0.503500
endheader
time	1_ground_force_vx	1_ground_force_vy	1_ground_force_vz	1_ground_force_px	1_ground_force_py	1_ground_force_pz	1_ground_torque_x	1_ground_torque_y	1_ground_torque_z	2_ground_force_vx	2_ground_force_vy	2_ground_force_vz	2_ground_force_px	2_ground_force_py	2_ground_force_pz	2_ground_torque_x	2_ground_torque_y	2_ground_torque_z	3_ground_force_vx	3_ground_force_vy	3_ground_force_vz	3_ground_force_px	3_ground_force_py	3_ground_force_pz	3_ground_torque_x	3_ground_torque_y	3_ground_torque_z	4_ground_force_vx	4_ground_force_vy	4_ground_force_vz	4_ground_force_px	4_ground_force_py	4_ground_force_pz	4_ground_torque_x	4_ground_torque_y	4_ground_torque_z
            0.498500	           -0.000000	           -0.000004	           -0.000002	            0.149275	            0.000000	            0.265966	           -0.000002	           -0.000001	            0.000001	            0.000001	           -0.000016	           -0.000009	           -0.133537	            0.000000	            0.279475	           -0.000002	            0.000002	           -0.000003	           22.226570	            0.989118	            0.165052	            0.375481	            1.311344	            1.913198	           -0.096538	           -0.004296	           -0.000717	          -18.767226	           -0.531906	            1.453038	           -0.265391	            1.310098	            1.923771	            0.005702	            0.000162	           -0.000441
            0.499000	           -0.000000	           -0.000002	            0.000000	            0.149275	            0.000000	            0.265966	           -0.000001	            0.000000	            0.000001	            0.000001	           -0.000016	           -0.000009	           -0.133537	            0.000000	            0.279475	           -0.000002	            0.000002	           -0.000003	           22.215216	            1.014706	            0.176938	            0.375475	            1.311344	            1.913202	           -0.096594	           -0.004412	           -0.000769	          -18.755163	           -0.528115	            1.462901	           -0.265396	            1.310099	            1.923773	            0.006074	            0.000171	           -0.000474
            0.499500	           -0.000001	            0.000001	            0.000002	            0.149275	            0.000000	            0.265966	            0.000000	            0.000001	           -0.000000	            0.000001	           -0.000015	           -0.000009	           -0.133537	            0.000000	            0.279475	           -0.000002	            0.000002	           -0.000002	           22.203970	            1.040647	            0.188211	            0.375469	            1.311344	            1.913205	           -0.096666	           -0.004531	           -0.000819	          -18.742981	           -0.523733	            1.472811	           -0.265402	            1.310101	            1.923774	            0.006481	            0.000181	           -0.000509
            0.500000	           -0.000001	            0.000003	            0.000004	            0.149275	            0.000000	            0.265966	            0.000002	            0.000002	           -0.000001	            0.000002	           -0.000014	           -0.000009	           -0.133537	            0.000000	            0.279475	           -0.000002	            0.000002	           -0.000002	           22.192885	            1.066652	            0.198857	            0.375463	            1.311344	            1.913209	           -0.096754	           -0.004650	           -0.000867	          -18.730741	           -0.518840	            1.482748	           -0.265407	            1.310102	            1.923776	            0.006920	            0.000192	           -0.000548
            0.500500	           -0.000002	            0.000006	            0.000006	            0.149275	            0.000000	            0.265966	            0.000004	            0.000003	           -0.000002	            0.000002	           -0.000013	           -0.000009	           -0.133537	            0.000000	            0.279475	           -0.000002	            0.000001	           -0.000002	           22.182006	            1.092437	            0.209329	            0.375456	            1.311343	            1.913213	           -0.096856	           -0.004770	           -0.000914	          -18.718503	           -0.513510	            1.492758	           -0.265413	            1.310103	            1.923777	            0.007386	            0.000203	           -0.000589
            0.501000	           -0.000002	            0.000009	            0.000008	            0.149275	            0.000000	            0.265966	            0.000005	            0.000004	           -0.000002	            0.000002	           -0.000011	           -0.000008	           -0.133537	            0.000000	            0.279475	           -0.000001	            0.000001	           -0.000002	           22.171380	            1.117722	            0.219153	            0.375448	            1.311343	            1.913217	           -0.096972	           -0.004889	           -0.000959	          -18.706342	           -0.507835	            1.502765	           -0.265418	            1.310103	            1.923778	            0.007875	            0.000214	           -0.000633
            0.501500	           -0.000003	            0.000011	            0.000011	            0.149275	            0.000000	            0.265966	            0.000007	            0.000005	           -0.000003	            0.000002	           -0.000009	           -0.000008	           -0.133537	            0.000000	            0.279475	           -0.000001	            0.000001	           -0.000002	           22.161042	            1.142240	            0.228317	            0.375441	            1.311342	            1.913221	           -0.097102	           -0.005005	           -0.001000	          -18.694330	           -0.501899	            1.512761	           -0.265423	            1.310104	            1.923779	            0.008384	            0.000225	           -0.000678
            0.502000	           -0.000003	            0.000014	            0.000013	            0.149275	            0.000000	            0.265966	            0.000009	            0.000006	           -0.000004	            0.000003	           -0.000008	           -0.000007	           -0.133537	            0.000000	            0.279475	           -0.000001	            0.000001	           -0.000001	           22.151020	            1.165734	            0.236808	            0.375434	            1.311342	            1.913225	           -0.097244	           -0.005118	           -0.001040	          -18.682545	           -0.495788	            1.522743	           -0.265429	            1.310104	            1.923780	            0.008908	            0.000236	           -0.000726
            0.502500	           -0.000004	            0.000018	            0.000015	            0.149275	            0.000000	            0.265966	            0.000011	            0.000007	           -0.000005	            0.000003	           -0.000005	           -0.000006	           -0.133537	            0.000000	            0.279475	           -0.000001	            0.000001	           -0.000001	           22.141336	            1.187967	            0.244613	            0.375427	            1.311342	            1.913229	           -0.097399	           -0.005226	           -0.001076	          -18.671064	           -0.489588	            1.532712	           -0.265434	            1.310105	            1.923781	            0.009441	            0.000248	           -0.000775
            0.503000	           -0.000004	            0.000021	            0.000018	            0.149275	            0.000000	            0.265966	            0.000013	            0.000008	           -0.000006	            0.000003	           -0.000003	           -0.000005	           -0.133537	            0.000000	            0.279475	           -0.000000	            0.000000	           -0.000001	           22.131996	            1.208716	            0.252150	            0.375419	            1.311341	            1.913233	           -0.097566	           -0.005328	           -0.001112	          -18.659961	           -0.483377	            1.542737	           -0.265439	            1.310105	            1.923781	            0.009979	            0.000259	           -0.000825
            0.503500	           -0.000005	            0.000024	            0.000020	            0.149275	            0.000000	            0.265966	            0.000015	            0.000009	           -0.000007	            0.000003	           -0.000000	           -0.000004	           -0.133537	            0.000000	            0.279475	           -0.000000	            0.000000	           -0.000000	           22.123008	            1.227783	            0.258969	            0.375411	            1.311340	            1.913237	           -0.097742	           -0.005425	           -0.001144	          -18.649321	           -0.477247	            1.552765	           -0.265444	            1.310104	            1.923782	            0.010517	            0.000269	           -0.000876
